<svg width="22" height="28" viewBox="0 0 22 28" fill="none" xmlns="http://www.w3.org/2000/svg">
<path d="M21.0766 1.58784C21.097 1.92274 21.0174 2.25616 20.8477 2.54562C20.678 2.83508 20.426 3.06748 20.1238 3.21321C19.8215 3.35895 19.4828 3.41142 19.1506 3.36395C18.8185 3.31648 18.5079 3.17122 18.2586 2.94666C18.0093 2.7221 17.8325 2.42842 17.7507 2.10301C17.6689 1.77761 17.6858 1.43522 17.7993 1.11946C17.9127 0.803698 18.1176 0.528857 18.3878 0.329946C18.658 0.131036 18.9813 0.0170602 19.3166 0.00253739C19.5364 -0.00959294 19.7564 0.0218538 19.964 0.0950691C20.1716 0.168284 20.3627 0.281823 20.5263 0.429155C20.6898 0.576486 20.8226 0.754703 20.9171 0.953554C21.0115 1.1524 21.0657 1.36797 21.0766 1.58784Z" fill="#F47B2F"/>
<path d="M11.2193 21.1112C6.73269 21.1112 2.78929 19.5012 0.750488 17.123C1.5416 19.2623 2.96908 21.1078 4.84077 22.4112C6.71246 23.7146 8.93853 24.4133 11.2193 24.4133C13.5001 24.4133 15.7262 23.7146 17.5979 22.4112C19.4696 21.1078 20.8971 19.2623 21.6882 17.123C19.6543 19.501 15.7259 21.1112 11.2193 21.1112Z" fill="#F47B2F"/>
<path d="M11.2193 5.64833C15.706 5.64833 19.6493 7.25833 21.6882 9.63643C20.8971 7.49722 19.4696 5.65171 17.5979 4.34832C15.7262 3.04492 13.5001 2.34619 11.2193 2.34619C8.93853 2.34619 6.71246 3.04492 4.84077 4.34832C2.96908 5.65171 1.5416 7.49722 0.750488 9.63643C2.78939 7.25353 6.71279 5.64833 11.2193 5.64833Z" fill="#F47B2F"/>
<path d="M5.04267 25.7387C5.07034 26.2614 4.90263 26.7757 4.57213 27.1816C4.24164 27.5874 3.77199 27.8559 3.25455 27.9347C2.7371 28.0135 2.20884 27.897 1.77251 27.6079C1.33618 27.3188 1.02298 26.8777 0.893821 26.3705C0.764661 25.8633 0.828777 25.3261 1.0737 24.8636C1.31862 24.401 1.72684 24.046 2.21896 23.8678C2.71107 23.6895 3.25191 23.7006 3.73627 23.899C4.22063 24.0974 4.61389 24.4688 4.83957 24.9411C4.95853 25.1912 5.02752 25.4622 5.04267 25.7387Z" fill="#F47B2F"/>
<path d="M1.25986 5.10644C1.01813 5.11306 0.779848 5.04806 0.574963 4.91962C0.370077 4.79118 0.207737 4.60504 0.108355 4.38459C0.00897217 4.16414 -0.0230165 3.91923 0.0164109 3.68065C0.0558384 3.44207 0.164921 3.22048 0.329945 3.04372C0.494969 2.86697 0.708566 2.74295 0.943881 2.68726C1.1792 2.63157 1.42572 2.64669 1.65247 2.73073C1.87921 2.81477 2.07605 2.96396 2.21823 3.15956C2.36041 3.35516 2.44159 3.58843 2.45156 3.83004C2.46101 4.15684 2.34116 4.47419 2.11804 4.71316C1.89492 4.95214 1.58654 5.09346 1.25986 5.10644Z" fill="#F47B2F"/>
</svg>
